<svg width="52" height="52" viewBox="0 0 52 52" fill="none" xmlns="http://www.w3.org/2000/svg">
<path d="M52 26.0858C51.9918 32.462 49.6603 38.6151 45.4447 43.3862C41.2291 48.1573 35.4203 51.217 29.1124 51.9889C28.972 52.0048 28.8298 51.9907 28.6951 51.9475C28.5605 51.9043 28.4365 51.8329 28.3314 51.7381C28.2263 51.6433 28.1424 51.5272 28.0853 51.3974C28.0281 51.2677 27.999 51.1273 27.9999 50.9855V32.1062H34C34.2741 32.1068 34.5455 32.0509 34.7972 31.9418C35.0489 31.8328 35.2756 31.6729 35.4632 31.4723C35.6507 31.2716 35.7952 31.0344 35.8875 30.7753C35.9799 30.5163 36.0181 30.241 36 29.9665C35.9558 29.4504 35.7185 28.9703 35.3359 28.6226C34.9532 28.275 34.4536 28.0856 33.9375 28.0926H27.9999V22.0721C27.9999 21.0076 28.4214 19.9867 29.1715 19.234C29.9217 18.4813 30.9391 18.0584 32 18.0584H36C36.2741 18.0591 36.5455 18.0031 36.7972 17.894C37.0489 17.785 37.2756 17.6251 37.4632 17.4245C37.6507 17.2238 37.7952 16.9866 37.8875 16.7275C37.9799 16.4685 38.0181 16.1932 38 15.9187C37.9557 15.4017 37.7178 14.9209 37.334 14.5731C36.9503 14.2253 36.4495 14.0365 35.9325 14.0448H32C29.8782 14.0448 27.8434 14.8905 26.3431 16.3959C24.8428 17.9014 23.9999 19.9431 23.9999 22.0721V28.0926H17.9999C17.7257 28.092 17.4544 28.148 17.2027 28.257C16.951 28.3661 16.7243 28.5259 16.5367 28.7266C16.3492 28.9272 16.2047 29.1645 16.1124 29.4235C16.02 29.6825 15.9818 29.9579 15.9999 30.2324C16.0442 30.7493 16.2821 31.2301 16.6658 31.5779C17.0495 31.9257 17.5504 32.1145 18.0674 32.1062H23.9999V50.9905C24.0008 51.1321 23.9718 51.2723 23.9148 51.4018C23.8578 51.5313 23.7741 51.6473 23.6693 51.7421C23.5644 51.8369 23.4408 51.9083 23.3065 51.9517C23.1722 51.9951 23.0302 52.0095 22.8899 51.9939C16.4133 51.2025 10.4688 48.0001 6.23308 43.0205C1.99735 38.041 -0.220904 31.6473 0.0173865 25.1049C0.517388 11.5588 11.4524 0.546366 24.9624 0.0195736C28.4602 -0.116374 31.9493 0.456939 35.2211 1.70522C38.493 2.9535 41.4803 4.85111 44.0044 7.28453C46.5285 9.71796 48.5375 12.6372 49.9114 15.8677C51.2852 19.0981 51.9956 22.5735 52 26.0858Z" fill="white"/>
</svg>
