<svg width="46" height="46" viewBox="0 0 46 46" fill="none" xmlns="http://www.w3.org/2000/svg">
<path d="M33.6154 0H12.3846C9.10109 0.00351242 5.95305 1.30944 3.63125 3.63125C1.30944 5.95305 0.00351242 9.10109 0 12.3846V33.6154C0.00351242 36.8989 1.30944 40.0469 3.63125 42.3688C5.95305 44.6906 9.10109 45.9965 12.3846 46H33.6154C36.8989 45.9965 40.0469 44.6906 42.3688 42.3688C44.6906 40.0469 45.9965 36.8989 46 33.6154V12.3846C45.9965 9.10109 44.6906 5.95305 42.3688 3.63125C40.0469 1.30944 36.8989 0.00351242 33.6154 0ZM23 33.6154C20.9005 33.6154 18.8481 32.9928 17.1024 31.8264C15.3567 30.6599 13.9961 29.002 13.1927 27.0623C12.3892 25.1226 12.179 22.9882 12.5886 20.929C12.9982 18.8699 14.0092 16.9784 15.4938 15.4938C16.9784 14.0092 18.8699 12.9982 20.929 12.5886C22.9882 12.179 25.1226 12.3892 27.0623 13.1927C29.002 13.9961 30.6599 15.3567 31.8264 17.1024C32.9928 18.8481 33.6154 20.9005 33.6154 23C33.6125 25.8145 32.4931 28.5128 30.503 30.503C28.5128 32.4931 25.8145 33.6125 23 33.6154ZM36.2692 12.3846C35.7444 12.3846 35.2313 12.229 34.7948 11.9374C34.3584 11.6458 34.0183 11.2313 33.8174 10.7464C33.6165 10.2614 33.564 9.72782 33.6664 9.21303C33.7688 8.69823 34.0215 8.22536 34.3927 7.85422C34.7638 7.48307 35.2367 7.23031 35.7515 7.12792C36.2663 7.02552 36.7999 7.07807 37.2848 7.27893C37.7697 7.4798 38.1842 7.81995 38.4758 8.25637C38.7674 8.69279 38.9231 9.20589 38.9231 9.73077C38.9231 10.4346 38.6435 11.1096 38.1458 11.6073C37.6481 12.105 36.9731 12.3846 36.2692 12.3846ZM30.0769 23C30.0769 24.3997 29.6619 25.7679 28.8842 26.9317C28.1066 28.0955 27.0014 29.0026 25.7082 29.5382C24.4151 30.0739 22.9921 30.214 21.6194 29.9409C20.2466 29.6679 18.9856 28.9939 17.9959 28.0041C17.0061 27.0144 16.3321 25.7534 16.0591 24.3806C15.786 23.0079 15.9261 21.5849 16.4618 20.2918C16.9974 18.9986 17.9045 17.8934 19.0683 17.1158C20.2321 16.3381 21.6003 15.9231 23 15.9231C24.8769 15.9231 26.677 16.6687 28.0041 17.9959C29.3313 19.323 30.0769 21.1231 30.0769 23Z" fill="white"/>
</svg>
