<svg width="44" height="44" viewBox="0 0 44 44" fill="none" xmlns="http://www.w3.org/2000/svg">
<path d="M40.6154 0H3.38462C2.48696 0 1.62607 0.356592 0.991331 0.991331C0.356592 1.62607 0 2.48696 0 3.38462V40.6154C0 41.513 0.356592 42.3739 0.991331 43.0087C1.62607 43.6434 2.48696 44 3.38462 44H40.6154C41.513 44 42.3739 43.6434 43.0087 43.0087C43.6434 42.3739 44 41.513 44 40.6154V3.38462C44 2.48696 43.6434 1.62607 43.0087 0.991331C42.3739 0.356592 41.513 0 40.6154 0ZM15.2308 32.1538C15.2308 32.6027 15.0525 33.0331 14.7351 33.3505C14.4177 33.6679 13.9873 33.8462 13.5385 33.8462C13.0896 33.8462 12.6592 33.6679 12.3418 33.3505C12.0245 33.0331 11.8462 32.6027 11.8462 32.1538V18.6154C11.8462 18.1666 12.0245 17.7361 12.3418 17.4187C12.6592 17.1014 13.0896 16.9231 13.5385 16.9231C13.9873 16.9231 14.4177 17.1014 14.7351 17.4187C15.0525 17.7361 15.2308 18.1666 15.2308 18.6154V32.1538ZM13.5385 15.2308C13.0364 15.2308 12.5456 15.0819 12.1282 14.803C11.7107 14.524 11.3854 14.1276 11.1932 13.6637C11.0011 13.1999 10.9508 12.6895 11.0488 12.1971C11.1467 11.7047 11.3885 11.2524 11.7435 10.8973C12.0985 10.5423 12.5508 10.3006 13.0432 10.2026C13.5356 10.1047 14.046 10.1549 14.5099 10.3471C14.9737 10.5392 15.3702 10.8646 15.6491 11.282C15.928 11.6995 16.0769 12.1902 16.0769 12.6923C16.0769 13.3656 15.8095 14.0112 15.3334 14.4873C14.8574 14.9633 14.2117 15.2308 13.5385 15.2308ZM33.8462 32.1538C33.8462 32.6027 33.6679 33.0331 33.3505 33.3505C33.0331 33.6679 32.6027 33.8462 32.1538 33.8462C31.705 33.8462 31.2746 33.6679 30.9572 33.3505C30.6398 33.0331 30.4615 32.6027 30.4615 32.1538V24.5385C30.4615 23.4164 30.0158 22.3403 29.2224 21.5469C28.429 20.7534 27.3528 20.3077 26.2308 20.3077C25.1087 20.3077 24.0326 20.7534 23.2392 21.5469C22.4457 22.3403 22 23.4164 22 24.5385V32.1538C22 32.6027 21.8217 33.0331 21.5043 33.3505C21.187 33.6679 20.7565 33.8462 20.3077 33.8462C19.8589 33.8462 19.4284 33.6679 19.111 33.3505C18.7937 33.0331 18.6154 32.6027 18.6154 32.1538V18.6154C18.6175 18.2009 18.7717 17.8015 19.0486 17.4931C19.3256 17.1847 19.7062 16.9887 20.1181 16.9423C20.53 16.8959 20.9446 17.0022 21.2833 17.2412C21.622 17.4802 21.8612 17.8352 21.9556 18.2388C23.1004 17.4622 24.4351 17.0121 25.8165 16.9369C27.1978 16.8616 28.5735 17.164 29.7959 17.8117C31.0184 18.4593 32.0413 19.4277 32.7549 20.6128C33.4684 21.798 33.8457 23.1551 33.8462 24.5385V32.1538Z" fill="white"/>
</svg>
