<svg width="28" height="28" viewBox="0 0 28 28" fill="none" xmlns="http://www.w3.org/2000/svg">
<path d="M27.4149 0.585332C27.1634 0.333997 26.8494 0.154251 26.5054 0.064608C26.1613 -0.0250347 25.7996 -0.0213328 25.4574 0.0753323H25.4386L1.44615 7.35533C1.05664 7.46759 0.71044 7.69555 0.453421 8.00901C0.196402 8.32247 0.0406998 8.70663 0.00694683 9.11058C-0.0268062 9.51453 0.062984 9.9192 0.264419 10.271C0.465853 10.6227 0.769422 10.905 1.1349 11.0803L11.7499 16.2503L16.9124 26.8591C17.073 27.2017 17.3283 27.4913 17.6481 27.6935C17.9679 27.8957 18.339 28.0022 18.7174 28.0003C18.7749 28.0003 18.8324 27.9978 18.8899 27.9928C19.2935 27.9601 19.6775 27.8048 19.9903 27.5476C20.3031 27.2905 20.5298 26.9438 20.6399 26.5541L27.9149 2.56158C27.9149 2.55533 27.9149 2.54908 27.9149 2.54283C28.0128 2.20154 28.0181 1.84033 27.9302 1.49631C27.8424 1.15229 27.6645 0.837862 27.4149 0.585332ZM18.7286 25.9816L18.7224 25.9991V25.9903L13.7149 15.7028L19.7149 9.70283C19.8945 9.51377 19.9932 9.26202 19.9898 9.00126C19.9865 8.7405 19.8814 8.49135 19.697 8.30695C19.5126 8.12255 19.2635 8.01748 19.0027 8.01414C18.742 8.0108 18.4902 8.10946 18.3011 8.28908L12.3011 14.2891L2.0099 9.28158H2.00115H2.01865L25.9999 2.00033L18.7286 25.9816Z" fill="white"/>
</svg>
