<svg width="99" height="63" viewBox="0 0 99 63" fill="none" xmlns="http://www.w3.org/2000/svg">
<path d="M63.8478 58.1301C64.1576 58.6053 64.3333 59.1553 64.3564 59.7222C64.3795 60.289 64.2491 60.8516 63.979 61.3505C63.7089 61.8493 63.3092 62.2659 62.822 62.5563C62.3348 62.8466 61.7782 62.9999 61.2111 63H3.14795C2.58084 62.9999 2.02428 62.8466 1.53706 62.5563C1.04985 62.2659 0.650082 61.8493 0.379991 61.3505C0.109899 60.8516 -0.0204857 60.289 0.00261313 59.7222C0.0257119 59.1553 0.201436 58.6053 0.51122 58.1301C4.94291 51.306 11.4615 46.0982 19.0943 43.284C14.8747 40.4738 11.6712 36.3798 9.95739 31.6074C8.24362 26.8349 8.1106 21.6375 9.57799 16.7835C11.0454 11.9296 14.0353 7.67698 18.1056 4.65445C22.1758 1.63193 27.1104 0 32.1795 0C37.2486 0 42.1832 1.63193 46.2535 4.65445C50.3237 7.67698 53.3136 11.9296 54.781 16.7835C56.2484 21.6375 56.1154 26.8349 54.4016 31.6074C52.6879 36.3798 49.4843 40.4738 45.2648 43.284C52.8975 46.0982 59.4161 51.306 63.8478 58.1301ZM98.4441 58.071C94.0112 51.2756 87.5072 46.0903 79.8964 43.284C84.8778 39.9272 88.3933 34.7976 89.7273 28.9393C91.0614 23.081 90.1136 16.9343 87.077 11.7503C84.0405 6.56638 79.1433 2.73486 73.3824 1.03566C67.6214 -0.663546 61.4297 -0.102712 56.0675 2.604C55.8624 2.70991 55.6832 2.85962 55.5424 3.04253C55.4016 3.22544 55.3028 3.43708 55.2528 3.66245C55.2029 3.88783 55.2031 4.12143 55.2534 4.34672C55.3038 4.57201 55.403 4.78348 55.5441 4.96614C59.5313 9.94163 61.8212 16.0636 62.0783 22.4354C62.3353 28.8072 60.5461 35.0939 56.9726 40.3746C56.7417 40.7197 56.6563 41.1421 56.7352 41.5499C56.8141 41.9576 57.0507 42.3177 57.3937 42.5517C62.0528 45.8047 66.0414 49.9257 69.1409 54.6892C70.391 56.6043 70.9016 58.9091 70.5774 61.1733C70.5409 61.3985 70.5537 61.629 70.6151 61.8487C70.6764 62.0685 70.7848 62.2723 70.9326 62.446C71.0805 62.6198 71.2643 62.7593 71.4713 62.8549C71.6784 62.9506 71.9038 63.0001 72.1319 63H95.8624C96.5557 63.0002 97.2296 62.7715 97.7797 62.3494C98.3297 61.9273 98.7251 61.3353 98.9045 60.6654C99.014 60.2249 99.0295 59.7662 98.9502 59.3192C98.8709 58.8722 98.6984 58.4469 98.4441 58.071Z" fill="black"/>
</svg>
