<svg width="66" height="63" viewBox="0 0 66 63" fill="none" xmlns="http://www.w3.org/2000/svg">
<path d="M65.6615 61.7402C65.4386 62.1233 65.1181 62.4414 64.732 62.6626C64.346 62.8837 63.9081 63.0001 63.4624 63H2.536C2.0906 62.9995 1.65316 62.8828 1.26761 62.6615C0.882056 62.4401 0.561958 62.122 0.339457 61.739C0.116957 61.3561 -0.000114263 60.9218 8.36842e-08 60.4797C0.000114431 60.0376 0.11741 59.6034 0.340109 59.2205C5.17297 50.9277 12.6206 44.9813 21.3121 42.1624C17.0129 39.6222 13.6727 35.7514 11.8044 31.1446C9.93611 26.5378 9.64308 21.4496 10.9703 16.6615C12.2975 11.8734 15.1716 7.65004 19.1512 4.64009C23.1308 1.63014 27.9958 0 32.9992 0C38.0026 0 42.8676 1.63014 46.8472 4.64009C50.8268 7.65004 53.7009 11.8734 55.0281 16.6615C56.3553 21.4496 56.0623 26.5378 54.194 31.1446C52.3257 35.7514 48.9855 39.6222 44.6863 42.1624C53.3778 44.9813 60.8254 50.9277 65.6583 59.2205C65.8816 59.6033 65.9994 60.0376 66 60.4799C66.0006 60.9222 65.8838 61.3569 65.6615 61.7402Z" fill="black"/>
</svg>
