<svg width="50" height="40" viewBox="0 0 50 40" fill="none" xmlns="http://www.w3.org/2000/svg">
<path d="M48.7344 6.7091C48.5241 5.87125 48.1211 5.09633 47.5587 4.44826C46.9963 3.8002 46.2907 3.29756 45.5 2.98183C37.8482 -0.0272642 25.6696 8.6453e-06 25 8.6453e-06C24.3304 8.6453e-06 12.1518 -0.0272642 4.5 2.98183C3.70929 3.29756 3.00365 3.8002 2.44128 4.44826C1.87892 5.09633 1.47595 5.87125 1.26562 6.7091C0.6875 8.97728 0 13.1227 0 20C0 26.8773 0.6875 31.0227 1.26562 33.2909C1.47564 34.1292 1.87846 34.9046 2.44084 35.553C3.00323 36.2015 3.70904 36.7045 4.5 37.0205C11.8304 39.9 23.3036 40 24.8527 40H25.1473C26.6964 40 38.1763 39.9 45.5 37.0205C46.291 36.7045 46.9968 36.2015 47.5592 35.553C48.1215 34.9046 48.5244 34.1292 48.7344 33.2909C49.3125 31.0182 50 26.8773 50 20C50 13.1227 49.3125 8.97728 48.7344 6.7091ZM32.2746 21.4818L23.346 27.8455C23.0789 28.036 22.7657 28.1484 22.4403 28.1705C22.1149 28.1926 21.7898 28.1235 21.5002 27.9708C21.2107 27.8182 20.9677 27.5876 20.7976 27.3043C20.6276 27.021 20.537 26.6957 20.5357 26.3636V13.6364C20.5358 13.3038 20.6255 12.9776 20.795 12.6932C20.9646 12.4089 21.2075 12.1774 21.4973 12.0239C21.7871 11.8704 22.1127 11.8008 22.4386 11.8226C22.7646 11.8444 23.0784 11.9569 23.346 12.1477L32.2746 18.5114C32.5094 18.6791 32.7012 18.9019 32.8335 19.161C32.9659 19.4201 33.035 19.7079 33.035 20C33.035 20.2921 32.9659 20.5799 32.8335 20.839C32.7012 21.0981 32.5094 21.3209 32.2746 21.4886V21.4818Z" fill="white"/>
</svg>
